<svg width="21" height="14" viewBox="0 0 21 14" fill="none" xmlns="http://www.w3.org/2000/svg">
<path d="M17.7881 5.7234C18.3283 5.7234 18.8565 5.56318 19.3057 5.26302C19.7549 4.96286 20.105 4.53623 20.3118 4.03708C20.5186 3.53793 20.5727 2.98869 20.4673 2.45879C20.3618 1.9289 20.1017 1.44214 19.7196 1.0601C19.3376 0.678068 18.8509 0.417901 18.321 0.312498C17.7911 0.207095 17.2418 0.261198 16.7427 0.467954C16.2435 0.674709 15.8169 1.02483 15.5167 1.47405C15.2166 1.92328 15.0563 2.45142 15.0563 2.9917C15.0586 3.62772 15.2869 4.24224 15.7004 4.72555L13.3508 8.37725C12.2975 8.00853 11.1902 7.81722 10.0742 7.8111C9.28219 7.81923 8.49376 7.91896 7.72466 8.10832L5.54498 4.72555C5.95844 4.24224 6.18666 3.62772 6.18896 2.9917C6.18896 2.45142 6.02876 1.92328 5.7286 1.47405C5.42844 1.02483 5.00179 0.674709 4.50264 0.467954C4.00349 0.261198 3.45425 0.207095 2.92435 0.312498C2.39446 0.417901 1.90772 0.678068 1.52568 1.0601C1.14365 1.44214 0.883483 1.9289 0.77808 2.45879C0.672677 2.98869 0.726758 3.53793 0.933514 4.03708C1.14027 4.53623 1.49041 4.96286 1.93963 5.26302C2.38886 5.56318 2.917 5.7234 3.45728 5.7234C3.6969 5.72022 3.93497 5.68451 4.16497 5.61725L6.10404 8.63909C3.89511 9.58749 2.09796 11.2943 1.03696 13.4514H19.1043C18.1783 11.582 16.6946 10.0464 14.8582 9.05663L17.0733 5.61725C17.306 5.68303 17.5462 5.7187 17.7881 5.7234V5.7234Z" fill="white"/>
</svg>
