<svg width="26" height="26" viewBox="0 0 26 26" fill="none" xmlns="http://www.w3.org/2000/svg">
<path d="M22.4379 -0.0629883C22.0629 -0.0629883 21.7059 0.107012 21.4059 0.407012L20.6879 1.09401L24.9059 5.31201L25.5939 4.59401C26.1939 3.99401 26.1939 3.10001 25.5939 2.50001L23.4999 0.406012C23.1999 0.106012 22.8119 -0.0629883 22.4369 -0.0629883H22.4379ZM19.9999 1.68801L18.9059 2.59501L23.4059 7.09501L24.4059 6.09501L19.9999 1.68701V1.68801ZM18.3119 3.31301L9.28191 12.251C9.2362 12.2888 9.19402 12.3306 9.15591 12.376L9.09391 12.407C8.98484 12.532 8.90946 12.6828 8.87491 12.845L7.65591 17.126C7.60366 17.2955 7.59861 17.4759 7.64131 17.648C7.684 17.8201 7.77281 17.9773 7.8982 18.1027C8.02358 18.2281 8.18078 18.3169 8.35288 18.3596C8.52498 18.4023 8.70547 18.3973 8.87491 18.345L13.1559 17.126C13.2981 17.0923 13.4308 17.0271 13.5443 16.9352C13.6579 16.8433 13.7493 16.727 13.8119 16.595L22.6879 7.81301L20.9999 6.00001V6.09401L19.8119 4.90601H19.9059L18.3129 3.31301H18.3119ZM0.812911 4.00001C0.58124 4.04407 0.372596 4.16859 0.223832 4.35157C0.0750682 4.53456 -0.00424193 4.76423 -8.89396e-05 5.00001V25C-8.89396e-05 25.2652 0.105268 25.5196 0.292804 25.7071C0.480341 25.8947 0.734695 26 0.999911 26H20.9999C21.2651 26 21.5195 25.8947 21.707 25.7071C21.8946 25.5196 21.9999 25.2652 21.9999 25V14C21.9999 13.7348 21.8946 13.4804 21.707 13.2929C21.5195 13.1054 21.2651 13 20.9999 13C20.7347 13 20.4803 13.1054 20.2928 13.2929C20.1053 13.4804 19.9999 13.7348 19.9999 14V24H1.99991V6.00001H11.9999C12.2651 6.00001 12.5195 5.89465 12.707 5.70712C12.8946 5.51958 12.9999 5.26523 12.9999 5.00001C12.9999 4.7348 12.8946 4.48044 12.707 4.29291C12.5195 4.10537 12.2651 4.00001 11.9999 4.00001H0.999911C0.968595 3.99854 0.937227 3.99854 0.905911 4.00001C0.874595 3.99854 0.843227 3.99854 0.811911 4.00001H0.812911ZM10.6259 13.813L12.0009 13.906L12.0949 15.406L10.7199 15.812L10.1889 15.282L10.6259 13.812V13.813Z" fill="white"/>
</svg>
