<svg width="158" height="148" viewBox="0 0 158 148" fill="none" xmlns="http://www.w3.org/2000/svg">
<path d="M11.3986 98.5807L9.26215 101.3C9.17907 101.417 9.13972 101.56 9.1509 101.703C9.16208 101.846 9.22308 101.98 9.32338 102.083V102.083C9.38941 102.148 9.42762 102.237 9.43006 102.329C9.43251 102.422 9.399 102.512 9.3365 102.58L8.93085 102.973C8.67391 103.222 8.23873 103.219 7.92055 102.965L7.1683 102.365L6.2575 102.518C5.25892 102.675 4.34456 103.167 3.66725 103.914L2.98278 104.682C2.87545 104.798 2.74446 104.89 2.59853 104.952C2.45261 105.014 2.29509 105.044 2.13649 105.041H1.97576C1.31991 105.03 0.686728 104.8 0.178223 104.388V104.388L5.0657 98.0662C5.2407 97.8536 5.47871 97.7013 5.74579 97.6311L7.05131 97.257L6.23891 96.6098L7.64064 94.8694L10.9482 97.5072C11.3921 97.8585 11.7059 98.1902 11.3986 98.5807Z" fill="#06375B"/>
<path d="M6.28789 96.6123L7.66211 94.848L7.44603 94.6814L6.07182 96.4458L6.28789 96.6123Z" fill="#06375B"/>
<path d="M0 104.248L4.99026 97.84C5.03021 97.7889 5.08889 97.7556 5.15344 97.7475C5.21799 97.7393 5.28315 97.757 5.33468 97.7965L5.35764 97.8139L0.218679 104.415L0 104.248Z" fill="#06375B"/>
<path d="M141.387 132.181H84.0242V21.1125L141.387 8.80396V132.181Z" fill="#C9EDF9"/>
<path d="M86.1192 133.674L88.7816 131.465C88.8884 131.368 88.9577 131.237 88.9777 131.094C88.9976 130.952 88.967 130.807 88.891 130.685V130.685C88.8405 130.607 88.8219 130.513 88.839 130.422C88.8561 130.331 88.9076 130.251 88.9828 130.196L89.4617 129.897C89.7657 129.707 90.191 129.801 90.4458 130.115L91.0548 130.859L91.9765 130.899C92.9855 130.954 93.983 130.663 94.8029 130.076L95.635 129.468C95.7645 129.376 95.9122 129.313 96.0682 129.283C96.2241 129.253 96.3848 129.257 96.5392 129.293L96.6945 129.327C97.3338 129.474 97.9049 129.831 98.316 130.34L92.2028 135.5C91.9871 135.673 91.7218 135.773 91.4451 135.787L90.0904 135.881L90.7464 136.682L89.009 138.096L86.3313 134.827C85.9727 134.386 85.7365 133.991 86.1192 133.674Z" fill="#063E70"/>
<path d="M90.7191 136.642L89.0034 138.08L89.1796 138.288L90.8952 136.85L90.7191 136.642Z" fill="#063E70"/>
<path d="M98.4591 130.512L92.2497 135.718C92.2223 135.741 92.1905 135.758 92.1562 135.769C92.1219 135.78 92.0858 135.784 92.0499 135.781C92.0141 135.778 91.9792 135.768 91.9472 135.751C91.9153 135.735 91.8869 135.712 91.8638 135.685V135.685L98.2831 130.304L98.4591 130.512Z" fill="#063E70"/>
<path d="M108.527 0L158 11.6831V131.546L108.527 141.988L107.705 140.217L107.499 0.537331L108.527 0Z" fill="#181156"/>
<path d="M108.526 0H105.87V141.988H108.526V0Z" fill="#261D75"/>
<path d="M92.4828 82.538C92.4772 82.5618 92.4781 82.5867 92.4856 82.61C92.493 82.6333 92.5066 82.6542 92.525 82.6704C92.5433 82.6867 92.5657 82.6977 92.5899 82.7024C92.614 82.707 92.6389 82.7051 92.6621 82.6969C93.4515 82.4064 95.9422 81.508 96.0592 81.6907C96.2014 81.9083 93.9982 82.7654 94.0058 83.0058C94.0135 83.2461 96.1412 82.3531 96.256 82.6142C96.3708 82.8752 94.4038 83.6171 94.4137 83.7421C94.4235 83.8672 96.3818 83.3527 96.5447 83.4637C96.7076 83.5746 94.6761 84.3774 94.6455 84.5329C94.6148 84.6885 96.1992 84.596 96.2232 84.7309C96.2473 84.8658 96.2845 84.9484 92.778 86.1732L91.3762 86.5952L90.0445 86.3255L89.7515 84.7276C89.7515 84.7276 92.4062 80.7694 92.603 80.7694C92.7998 80.7694 92.8578 80.9173 92.4828 82.538Z" fill="#FFC0BB"/>
<path d="M32.5405 75.842C32.8685 75.842 55.4286 63.9305 58.6289 63.3834L59.4555 63.7684C59.4555 63.7684 36.8387 75.5233 33.4021 77.2702C29.9656 79.0171 32.5405 75.842 32.5405 75.842Z" fill="#6577FF"/>
<path d="M29.701 74.6684C29.7063 74.6445 29.7051 74.6197 29.6975 74.5964C29.6899 74.5732 29.6762 74.5524 29.6578 74.5362C29.6394 74.52 29.617 74.5089 29.5928 74.5043C29.5687 74.4996 29.5438 74.5014 29.5206 74.5096C28.7323 74.8 26.2404 75.6984 26.1245 75.5157C25.9813 75.2982 28.1845 74.4421 28.1768 74.2007C28.1692 73.9592 26.0414 74.8533 25.9266 74.5922C25.8118 74.3312 27.7799 73.5894 27.769 73.4643C27.7581 73.3392 25.8009 73.8537 25.638 73.7427C25.475 73.6318 27.5066 72.829 27.5372 72.6746C27.5678 72.5201 25.9835 72.6104 25.9605 72.4755C25.9376 72.3407 25.8982 72.258 29.4058 71.0332L30.8075 70.6112L32.1371 70.8831L32.4301 72.481C32.4301 72.481 29.7754 76.4392 29.5786 76.4392C29.3817 76.4392 29.3249 76.2891 29.701 74.6684Z" fill="#FFC0BB"/>
<path d="M30.4697 108.953C30.4697 108.953 33.9259 96.3074 40.2534 90.3739L51.0408 105.458C51.0408 105.458 37.7724 117.992 31.7511 118.491C25.7298 118.991 10.5567 109.012 7.82544 103.297C7.82544 103.297 8.89587 99.5988 11.5167 97.3799C11.5167 97.3821 25.5078 107.843 30.4697 108.953Z" fill="#063E70"/>
<path d="M66.6458 87.3185C66.6458 87.3185 70.6651 95.5308 74.902 95.9191C79.1389 96.3074 92.4072 86.6572 92.4072 86.6572C92.4072 86.6572 92.5166 84.8266 90.121 83.0514C90.121 83.0514 78.7496 87.3772 77.3545 87.3218C75.9593 87.2663 72.912 76.673 72.912 76.673L68.0442 76.896L66.6458 87.3185Z" fill="#E6A748"/>
<path d="M44.2005 86.0742C78.637 110.749 70.9088 100.998 91.5303 130.114C91.5303 130.114 88.1112 133.983 85.9233 134.545C85.9233 134.545 62.1289 115.392 60.2121 113.63C58.2954 111.868 36.0481 100.921 36.0481 100.921L44.2005 86.0742Z" fill="#064C91"/>
<path d="M61.6193 64.8333C61.6193 64.8333 55.0983 61.42 50.9576 60.6325C46.8169 59.845 44.5186 60.0082 40.133 62.7329C35.7474 65.4576 30.0989 70.3654 30.0989 70.3654C30.0989 70.3654 30.3493 73.1521 32.6487 73.8592C32.6487 73.8592 39.548 69.4506 43.5203 68.3683C43.5203 68.3683 45.8164 67.4982 48.036 68.7012C50.2556 69.9042 52.5835 71.7381 52.5835 71.7381L40.2532 90.3728C40.2532 90.3728 47.1526 96.8611 56.5601 96.7784C56.5601 96.7784 70.5676 86.01 72.867 77.1876C72.867 77.1876 73.452 75.7735 70.4834 70.0326L61.6193 64.8333Z" fill="#FFCB83"/>
<path d="M67.2089 75.234C66.238 77.2278 65.1621 79.1704 64.0162 81.0707C62.8703 82.9709 61.6512 84.8298 60.349 86.6311C59.0516 88.4382 57.6409 90.162 56.1252 91.7923C55.3662 92.6075 54.5632 93.3809 53.7197 94.1091C52.8804 94.8407 51.9835 95.5042 51.0376 96.0931C51.9386 95.4465 52.7932 94.7381 53.5951 93.9732C54.4042 93.2183 55.1706 92.4199 55.9054 91.5943C56.6402 90.7688 57.3574 89.9269 58.0375 89.0556C58.7176 88.1844 59.3966 87.3153 60.0406 86.4125C61.3429 84.6243 62.5718 82.7828 63.7582 80.9184C64.353 79.9844 64.9361 79.0439 65.5076 78.0969C66.0991 77.1506 66.6568 76.1934 67.2089 75.234Z" fill="#E6A748"/>
<path d="M67.2088 62.449L66.2608 64.5004C66.2608 64.5004 65.3686 69.9629 65.4244 70.2958C65.4801 70.6286 68.2672 72.6528 68.2672 72.6528H69.9073L70.4792 70.0325C70.4792 70.0325 70.9952 68.2715 71.5802 67.1903C72.1652 66.1091 67.2088 62.449 67.2088 62.449Z" fill="#FFC0BB"/>
<path d="M67.2088 62.449L66.5178 63.9446C67.2001 65.661 68.5034 67.4546 70.9559 68.6217C71.1336 68.13 71.3436 67.6503 71.5846 67.186C72.1696 66.1091 67.2088 62.449 67.2088 62.449Z" fill="#F99893"/>
<path d="M52.5879 71.7381L54.7473 73.1891L52.4829 71.8947L52.5879 71.7381Z" fill="white"/>
<path d="M31.5161 69.1613C30.636 69.8933 30.0947 70.3654 30.0947 70.3654C30.0947 70.3654 30.3451 73.1521 32.6445 73.8591C32.6445 73.8591 33.1617 73.5328 33.9905 73.0292C32.486 71.2823 31.8092 70.0129 31.5161 69.1613Z" fill="#E6A748"/>
<g style="mix-blend-mode:multiply" opacity="0.5">
<path d="M90.121 83.0515C90.121 83.0515 89.5458 83.269 88.6394 83.6094C89.2014 84.1294 90.0958 85.241 91.1542 87.5491C91.9437 86.9977 92.4127 86.6572 92.4127 86.6572C92.4127 86.6572 92.5188 84.8266 90.121 83.0515Z" fill="#BEE1F4"/>
</g>
<path d="M60.046 64.0501C60.046 64.0501 62.4974 79.3206 48.5326 94.2059L47.4031 93.1998C47.4031 93.1998 52.8394 87.5024 56.0168 80.7999C59.1942 74.0974 59.1243 63.6074 59.1243 63.6074C59.1243 63.6074 59.9585 63.2539 60.046 64.0501Z" fill="#6577FF"/>
<path d="M33.2785 103.038C17.0963 83.2875 17.0011 89.6897 30.3679 77.7151L46.092 96.1105C37.6193 103.048 36.2143 105.851 33.2785 103.038Z" fill="#6577FF"/>
<path d="M43.3991 97.9074C43.3991 97.9074 30.3549 82.6544 28.3955 80.3615C27.3404 79.0377 27.7887 78.9942 30.555 76.6426C33.3267 74.0832 31.8113 75.0414 47.0718 92.3057C48.5512 94.1287 49.5319 94.3724 47.0313 96.2324C45.2677 97.6116 44.4815 98.9462 43.3991 97.9074Z" fill="#65CEFE"/>
<path d="M33.8204 85.4016L32.551 86.4756L38.2866 93.1847L39.556 92.1107L33.8204 85.4016Z" fill="#FFCB83"/>
<path d="M66.3484 73.4534L66.555 76.1009C66.6335 76.2474 66.7532 76.3679 66.8994 76.4479C67.0456 76.5279 67.212 76.5638 67.3784 76.5512L69.4449 75.3928L69.6056 73.672L68.2695 72.6529L66.7628 72.3831L66.3484 73.4534Z" fill="#E74A60"/>
<path d="M66.2609 64.5004C66.2609 64.5004 66.3484 69.7835 68.2695 72.6529C68.2695 72.6529 65.2157 73.7765 64.3333 74.6499C64.3333 74.6499 61.532 70.0325 61.6151 64.8333C61.6195 64.8333 63.0803 64.0849 66.2609 64.5004Z" fill="#E6A748"/>
<path d="M68.2695 72.6528C68.8171 72.4161 69.3021 72.0563 69.6863 71.6016C70.0704 71.147 70.3434 70.6099 70.4837 70.0325C70.4837 70.0325 71.5847 71.2943 71.7957 72.2145C71.951 72.9041 71.003 74.788 69.5258 75.842C69.5226 75.842 69.3028 73.9559 68.2695 72.6528Z" fill="#E6A748"/>
<path d="M80.8217 57.3607L79.6452 60.998L78.9399 61.1133L79.7086 56.4078L80.8217 57.3607Z" fill="#031322"/>
<path d="M78.7441 60.1953C78.2554 60.9273 78.3374 61.8355 78.9267 62.2238C79.516 62.6121 80.3897 62.3326 80.8784 61.6049C81.3671 60.8773 81.2851 59.9658 80.6958 59.5764C80.1065 59.187 79.2329 59.4622 78.7441 60.1953Z" fill="#F99893"/>
<path d="M77.5688 64.8126C77.8407 64.506 78.0834 64.1751 78.2937 63.8239C78.8495 62.9063 79.2853 61.922 79.5905 60.8946C79.6517 60.6956 79.7239 60.4998 79.8004 60.3051C80.1452 59.4271 80.3028 58.4875 80.2633 57.5457C80.2237 56.6039 79.9879 55.6806 79.5707 54.8344C79.1535 53.9881 78.564 53.2372 77.8397 52.6296C77.1154 52.0219 76.2721 51.5705 75.3632 51.3042C74.4543 51.0379 73.4997 50.9624 72.5599 51.0825C71.6201 51.2026 70.7157 51.5156 69.904 52.0018C69.0922 52.488 68.3909 53.1367 67.8445 53.9068C67.2981 54.6769 66.9186 55.5515 66.7299 56.4752C66.5595 56.3189 66.3546 56.2046 66.1316 56.1415C65.9086 56.0784 65.6739 56.0683 65.4463 56.1119C64.5792 56.3045 64.0741 57.3345 64.3179 58.4114C64.5617 59.4882 65.4616 60.2061 66.3287 60.0125C66.4469 59.9862 66.5608 59.943 66.6665 59.8841C66.3385 63.2125 68.5187 66.2701 71.7541 66.8662C73.2856 67.1449 74.8663 66.8338 76.1758 65.996C76.2687 65.9458 76.3589 65.8906 76.4459 65.8307C76.8627 65.5408 77.2401 65.1986 77.5688 64.8126Z" fill="#FFC0BB"/>
<path d="M72.749 58.6496C72.7278 58.7652 72.6725 58.872 72.5903 58.9563C72.5081 59.0407 72.4026 59.0989 72.2871 59.1236C72.1716 59.1483 72.0513 59.1383 71.9415 59.095C71.8317 59.0516 71.7373 58.9769 71.6703 58.8801C71.6032 58.7834 71.5665 58.6691 71.5648 58.5516C71.563 58.4341 71.5964 58.3187 71.6606 58.2201C71.7248 58.1214 71.817 58.044 71.9255 57.9975C72.034 57.951 72.1539 57.9376 72.2701 57.9589C72.3471 57.9729 72.4207 58.0019 72.4865 58.0442C72.5523 58.0865 72.609 58.1413 72.6535 58.2055C72.698 58.2696 72.7293 58.3419 72.7457 58.4181C72.7621 58.4943 72.7632 58.573 72.749 58.6496V58.6496Z" fill="#333333"/>
<path d="M77.7414 59.8972C77.7201 60.0133 77.6647 60.1204 77.5822 60.2052C77.4997 60.2899 77.3937 60.3484 77.2778 60.3731C77.1618 60.3979 77.0411 60.3879 76.9308 60.3444C76.8206 60.3008 76.7258 60.2258 76.6585 60.1286C76.5912 60.0315 76.5544 59.9166 76.5528 59.7987C76.5511 59.6807 76.5847 59.5649 76.6493 59.4659C76.7138 59.3669 76.8064 59.2892 76.9154 59.2427C77.0244 59.1961 77.1448 59.1828 77.2614 59.2043C77.3386 59.2184 77.4123 59.2476 77.4783 59.2901C77.5442 59.3325 77.6011 59.3875 77.6456 59.4519C77.6902 59.5162 77.7216 59.5886 77.738 59.665C77.7545 59.7415 77.7556 59.8203 77.7414 59.8972V59.8972Z" fill="#333333"/>
<path d="M73.6718 57.6239C73.422 57.458 73.1591 57.3125 72.8857 57.1888C72.6304 57.0751 72.3602 56.9981 72.0831 56.9604C71.8072 56.9213 71.527 56.9246 71.2521 56.9702L71.1428 56.9832C71.1067 56.9832 71.0728 56.9995 71.0334 57.0061L70.8148 57.0528C70.6693 57.0866 70.5283 57.1398 70.3687 57.1703C70.4786 57.0565 70.5986 56.9527 70.7273 56.8603C70.8626 56.7726 71.007 56.6997 71.1581 56.6428C71.4694 56.5248 71.8058 56.4874 72.1356 56.534C72.4652 56.5791 72.7786 56.7038 73.0486 56.8973C73.3161 57.0817 73.5308 57.3321 73.6718 57.6239V57.6239Z" fill="#031322"/>
<path d="M76.0117 58.1786C76.2668 57.9834 76.568 57.8568 76.8864 57.811C77.2166 57.7583 77.5546 57.7878 77.8705 57.8969C78.1867 58.0023 78.4703 58.187 78.6938 58.4331C78.8033 58.5511 78.899 58.681 78.9792 58.8204C79.0531 58.9595 79.1139 59.1052 79.1607 59.2555C79.0317 59.1565 78.93 59.0455 78.8141 58.9498L78.6424 58.8117C78.6129 58.7899 78.5878 58.7627 78.5582 58.7431L78.4686 58.6833C78.2437 58.5191 77.9948 58.3904 77.7305 58.3015C77.466 58.2109 77.1899 58.1582 76.9105 58.1449C76.6105 58.1325 76.3099 58.1438 76.0117 58.1786V58.1786Z" fill="#031322"/>
<path d="M75.1216 57.8969C74.9195 58.2773 74.7722 58.6841 74.6843 59.1053C74.6379 59.32 74.6116 59.5385 74.6056 59.758C74.5952 59.9967 74.6366 60.2349 74.7269 60.4563L74.7761 60.5455L74.821 60.6216C74.8444 60.6557 74.8642 60.6922 74.88 60.7304C74.9135 60.798 74.9304 60.8726 74.9292 60.9479C74.9251 61.0277 74.9043 61.1058 74.8682 61.1772C74.832 61.2485 74.7813 61.3116 74.7193 61.3624C74.4492 61.6071 74.0304 61.6996 73.604 61.718C74.002 61.8627 74.4984 61.8877 74.9161 61.6147C75.0275 61.5447 75.1216 61.4504 75.1912 61.3391C75.2609 61.2278 75.3044 61.1022 75.3185 60.9719C75.3256 60.9036 75.3223 60.8347 75.3086 60.7674C75.2987 60.7007 75.28 60.6356 75.2529 60.5738C75.2278 60.5135 75.1966 60.4559 75.1599 60.4019C75.1476 60.3823 75.1367 60.362 75.1271 60.341L75.0998 60.292C75.0327 60.122 74.9957 59.9417 74.9904 59.7591C74.9816 59.5575 74.9841 59.3556 74.9981 59.1543C75.032 58.7377 75.0812 58.3222 75.1216 57.8969Z" fill="#F99893"/>
<path d="M74.4198 63.8815C74.9884 61.9823 71.0303 63.0233 73.6446 63.5171C74.0142 63.6531 74.1563 64.0403 74.4198 63.8815Z" fill="#F99893"/>
<path d="M82.5175 51.4011C81.5017 50.2459 79.3882 48.8036 77.0254 47.978C77.7044 47.7812 78.1417 47.5919 78.0357 47.4429C77.1752 46.2344 72.7677 47.171 71.3496 47.5093C71.2238 47.1405 70.7515 45.9799 69.809 46.1344C68.6904 46.316 70.2463 47.6811 70.2463 47.6811C70.2463 47.6811 68.908 47.4016 68.3875 47.9846C67.9983 48.4197 68.8183 48.5817 69.2721 48.6372C69.0577 48.6436 68.8463 48.6897 68.6489 48.7732C68.6489 48.7732 66.3801 49.6433 66.2675 50.5353C66.2412 50.7528 66.4107 50.8279 66.684 50.8181C66.1811 51.6208 65.2779 53.1567 65.5185 53.4764C65.6562 53.6592 65.8618 53.6179 66.0532 53.5091C65.929 54.3624 65.8673 55.2236 65.8684 56.0859C67.4997 56.3415 68.2454 58.4256 68.2454 58.4256C68.5734 56.2501 71.3966 52.8412 71.3966 52.8412C71.3966 52.8412 76.494 57.2356 76.0905 55.1863C76.0905 55.1863 82.254 59.7787 81.891 55.9815C81.891 55.9815 84.5895 56.6613 82.3393 53.0446C82.3294 53.0446 84.3358 53.4677 82.5175 51.4011Z" fill="#031322"/>
<path d="M39.1404 76.064C39.1404 76.064 43.3478 73.4708 46.1381 72.9368C46.1381 72.9368 62.1706 78.0012 66.6491 76.064L67.713 75.1764V76.1749C67.4246 76.5217 67.113 76.8488 66.7803 77.1538C64.9685 78.839 62.749 80.0288 60.3378 80.6073C57.9265 81.1858 55.4058 81.1334 53.021 80.4551C51.8992 80.1386 50.7544 79.8373 49.9245 79.6719C47.6393 79.2162 45.2973 78.9508 45.2973 78.9508C45.2973 78.9508 42.2369 76.2858 39.1404 76.064Z" fill="#E74A60"/>
<path d="M155.532 68.0823V15.2041L110.994 4.20728V66.913L155.532 68.0823Z" fill="#3E3284"/>
<path d="M110.994 75.2688V137.844L155.532 128.015V76.4381L110.994 75.2688Z" fill="#3E3284"/>
<g style="mix-blend-mode:multiply" opacity="0.1">
<path d="M155.532 68.0823L131.023 46.8772L110.994 4.20728V66.913L155.532 68.0823Z" fill="#0E5168"/>
</g>
<g style="mix-blend-mode:multiply" opacity="0.1">
<path d="M110.994 75.2688V137.844L155.532 128.015L129.128 113.227L110.994 75.2688Z" fill="#0E5168"/>
</g>
<path d="M115.206 71.2225C115.206 73.2467 114.509 74.8881 113.744 74.8881C112.541 74.8881 110.863 74.242 110.863 71.2225C110.863 68.6598 112.437 67.5558 113.636 67.5558C114.836 67.5558 115.206 69.1972 115.206 71.2225Z" fill="#4C3CAA"/>
<path d="M115.586 71.2225C115.586 73.2467 114.762 74.8881 113.744 74.8881C112.726 74.8881 111.901 73.2467 111.901 71.2225C111.901 69.1983 112.726 67.5558 113.744 67.5558C114.762 67.5558 115.586 69.1972 115.586 71.2225Z" fill="#846FDA"/>
<path d="M146.511 29.6076V21.0581L120.017 15.4738V25.6124L146.511 29.6076Z" fill="#EEFBFF"/>
<path d="M128.903 22.5516L126.199 22.0719V24.0711L129.212 24.6063V25.2067L125.301 24.5127V18.9654L129.058 19.6322V20.2326L126.199 19.7246V21.478L128.903 21.9577V22.5516Z" fill="#E74A60"/>
<path d="M134.184 26.0899L133.296 24.7063C132.935 24.1723 132.707 23.8275 132.491 23.4685H132.47C132.239 23.8061 131.987 24.1297 131.717 24.4377L130.882 25.5069L129.849 25.3231L131.975 22.8953L129.932 19.7921L130.974 19.977L131.893 21.4399C132.151 21.8478 132.347 22.1622 132.533 22.4918L132.563 22.4972C132.757 22.2096 132.967 21.9336 133.193 21.6705L134.142 20.5393L135.174 20.722L133.057 23.0421L135.225 26.2748L134.184 26.0899Z" fill="#E74A60"/>
<path d="M137.165 21.0723V26.6197L136.268 26.4609V20.9135L137.165 21.0723Z" fill="#E74A60"/>
<path d="M140.055 22.1948L137.939 21.8185V21.2104L143.088 22.1241V22.7333L140.963 22.3558V27.293L140.055 27.132V22.1948Z" fill="#E74A60"/>
</svg>
