<svg width="31" height="40" viewBox="0 0 31 40" fill="none" xmlns="http://www.w3.org/2000/svg">
<path d="M0.234375 26.2748L7.62268 25.5671C8.06145 28.044 8.96731 29.8699 10.3261 31.0305C11.8893 32.2596 13.8462 32.8784 15.8319 32.7714C18.2734 32.7714 20.1205 32.2548 21.359 31.2216C21.9264 30.7992 22.3893 30.2523 22.7119 29.6229C23.0346 28.9935 23.2085 28.2983 23.2202 27.5911C23.2401 26.7641 22.9612 25.9575 22.4347 25.3194C21.6797 24.5504 20.7387 23.9897 19.703 23.6917C18.8113 23.3803 16.7873 22.8425 13.6239 22.0499C9.54759 21.0402 6.69089 19.7994 5.05376 18.3274C3.22904 16.7601 2.03683 14.5824 1.69956 12.2008C1.3623 9.8191 1.903 7.39606 3.22082 5.38373C4.36246 3.66528 6.00207 2.33681 7.9199 1.57634C10.2705 0.641428 12.7865 0.193619 15.3153 0.260043C20.0332 0.260043 23.5882 1.29564 25.9802 3.36682C27.164 4.39768 28.1117 5.67146 28.7589 7.10149C29.4062 8.53153 29.7377 10.0842 29.731 11.6539L22.1445 11.9865C21.819 10.0545 21.1184 8.66035 20.0215 7.81819C18.9245 6.97604 17.3464 6.54435 15.2091 6.54435C13.3823 6.43968 11.5691 6.91525 10.0289 7.90311C9.64867 8.16037 9.33921 8.50908 9.12899 8.91716C8.91877 9.32524 8.81452 9.7796 8.82577 10.2385C8.82705 10.68 8.92907 11.1154 9.12407 11.5115C9.31906 11.9077 9.60187 12.2541 9.95098 12.5244C10.8946 13.3311 13.2205 14.1686 16.9289 15.0367C19.7571 15.6167 22.5076 16.5264 25.1239 17.7471C26.8307 18.6217 28.2687 19.9423 29.2851 21.5686C30.3362 23.387 30.856 25.4638 30.7854 27.5628C30.7863 29.7115 30.1617 31.8139 28.9879 33.6136C27.771 35.5061 25.9951 36.9729 23.9067 37.8102C21.3047 38.7952 18.5351 39.2616 15.7541 39.1831C10.9984 39.1831 7.34433 38.0839 4.79192 35.8853C2.23951 33.6867 0.720324 30.4832 0.234375 26.2748Z" fill="white"/>
</svg>
