<svg width="26" height="26" viewBox="0 0 26 26" fill="none" xmlns="http://www.w3.org/2000/svg">
<path d="M17.4688 7.92188V6.70312C17.4688 6.59141 17.3773 6.5 17.2656 6.5H7.51562C7.40391 6.5 7.3125 6.59141 7.3125 6.70312V7.92188C7.3125 8.03359 7.40391 8.125 7.51562 8.125H17.2656C17.3773 8.125 17.4688 8.03359 17.4688 7.92188ZM7.51562 10.1562C7.40391 10.1562 7.3125 10.2477 7.3125 10.3594V11.5781C7.3125 11.6898 7.40391 11.7812 7.51562 11.7812H12.1875C12.2992 11.7812 12.3906 11.6898 12.3906 11.5781V10.3594C12.3906 10.2477 12.2992 10.1562 12.1875 10.1562H7.51562ZM17.0625 13.1016C14.0334 13.1016 11.5781 15.5568 11.5781 18.5859C11.5781 21.615 14.0334 24.0703 17.0625 24.0703C20.0916 24.0703 22.5469 21.615 22.5469 18.5859C22.5469 15.5568 20.0916 13.1016 17.0625 13.1016ZM19.792 21.3154C19.0633 22.0441 18.0934 22.4453 17.0625 22.4453C16.0316 22.4453 15.0617 22.0441 14.333 21.3154C13.6043 20.5867 13.2031 19.6168 13.2031 18.5859C13.2031 17.5551 13.6043 16.5852 14.333 15.8564C15.0617 15.1277 16.0316 14.7266 17.0625 14.7266C18.0934 14.7266 19.0633 15.1277 19.792 15.8564C20.5207 16.5852 20.9219 17.5551 20.9219 18.5859C20.9219 19.6168 20.5207 20.5867 19.792 21.3154ZM19.3223 16.6562H18.1975C18.1314 16.6562 18.0705 16.6867 18.0324 16.74L16.4201 18.9693L15.8336 18.1594C15.8148 18.1332 15.79 18.1119 15.7613 18.0974C15.7326 18.0828 15.7008 18.0753 15.6686 18.0756H14.5488C14.3838 18.0756 14.2873 18.2635 14.3838 18.398L16.2576 20.9904C16.3389 21.1021 16.5039 21.1021 16.5852 20.9904L19.4848 16.9787C19.5838 16.8441 19.4873 16.6562 19.3223 16.6562ZM11.1719 21.6328H5.28125V3.75781H19.5V12.4922C19.5 12.6039 19.5914 12.6953 19.7031 12.6953H21.125C21.2367 12.6953 21.3281 12.6039 21.3281 12.4922V2.74219C21.3281 2.29277 20.965 1.92969 20.5156 1.92969H4.26562C3.81621 1.92969 3.45312 2.29277 3.45312 2.74219V22.6484C3.45312 23.0979 3.81621 23.4609 4.26562 23.4609H11.1719C11.2836 23.4609 11.375 23.3695 11.375 23.2578V21.8359C11.375 21.7242 11.2836 21.6328 11.1719 21.6328Z" fill="white"/>
</svg>
