<svg width="31" height="24" viewBox="0 0 31 24" fill="none" xmlns="http://www.w3.org/2000/svg">
<path d="M22.5546 0.678528V5.71021C22.6023 7.8386 22.4912 9.96759 22.222 12.0794C21.9976 13.3707 21.292 14.5289 20.2476 15.3207C19.1506 16.2053 17.53 16.6441 15.3716 16.6441C13.5886 16.7395 11.8243 16.2418 10.354 15.2287C9.14941 14.3212 8.32271 13.0005 8.03279 11.5204C7.78426 9.4354 7.68965 7.33495 7.74972 5.23607V0.678528H0.156175V4.92468C0.0670435 8.12453 0.318507 11.3248 0.906327 14.4714C1.28623 16.007 2.01245 17.4352 3.0294 18.6468C4.22004 20.0564 5.72884 21.1625 7.43125 21.8739C9.2854 22.7467 12.0006 23.1831 15.5768 23.1831C18.0382 23.2675 20.4931 22.8808 22.8094 22.0438C24.5089 21.3859 26.0274 20.3331 27.2396 18.9724C28.3767 17.6127 29.1552 15.9899 29.5042 14.2521C29.9194 12.3885 30.1269 9.19912 30.1269 4.68405V0.678528H22.5546Z" fill="white"/>
</svg>
